<?xml version="1.0" encoding="UTF-8"?>
<svg xmlns="http://www.w3.org/2000/svg" xmlns:xlink="http://www.w3.org/1999/xlink" width="80pt" height="80pt" viewBox="0 0 80 80" version="1.1">
<g id="surface1">
<path style=" stroke:none;fill-rule:nonzero;fill:rgb(91.764706%,90.980392%,89.803922%);fill-opacity:1;" d="M 40 9.273438 L 10 29.640625 L 10 76.25 L 70 76.25 L 70 29.640625 Z M 40 9.273438 "/>
<path style=" stroke:none;fill-rule:nonzero;fill:rgb(90.980392%,61.568627%,26.27451%);fill-opacity:1;" d="M 21.25 51.25 L 35 51.25 L 35 76.25 L 21.25 76.25 Z M 21.25 51.25 "/>
<path style=" stroke:none;fill-rule:nonzero;fill:rgb(20%,21.960784%,36.078431%);fill-opacity:1;" d="M 48.75 62.5 L 66.25 62.5 L 66.25 67.5 L 48.75 67.5 Z M 48.75 62.5 "/>
<path style=" stroke:none;fill-rule:nonzero;fill:rgb(27.058824%,29.019608%,42.745098%);fill-opacity:1;" d="M 45 76.25 L 45 58.75 L 47.5 55 L 50 58.75 L 50 76.25 Z M 45 76.25 "/>
<path style=" stroke:none;fill-rule:nonzero;fill:rgb(27.058824%,29.019608%,42.745098%);fill-opacity:1;" d="M 55 76.25 L 55 58.75 L 57.5 55 L 60 58.75 L 60 76.25 Z M 55 76.25 "/>
<path style=" stroke:none;fill-rule:nonzero;fill:rgb(27.058824%,29.019608%,42.745098%);fill-opacity:1;" d="M 65 76.25 L 65 58.75 L 67.5 55 L 70 58.75 L 70 76.25 Z M 65 76.25 "/>
<path style=" stroke:none;fill-rule:nonzero;fill:rgb(29.019608%,76.470588%,92.941176%);fill-opacity:1;" d="M 43.75 40 L 36.25 40 C 34.179688 40 32.5 38.320312 32.5 36.25 L 32.5 28.75 C 32.5 26.679688 34.179688 25 36.25 25 L 43.75 25 C 45.820312 25 47.5 26.679688 47.5 28.75 L 47.5 36.25 C 47.5 38.320312 45.820312 40 43.75 40 Z M 43.75 40 "/>
<path style=" stroke:none;fill-rule:nonzero;fill:rgb(46.27451%,80%,47.843137%);fill-opacity:1;" d="M 16.25 61.25 C 16.25 65.738281 13.453125 68.75 10 68.75 C 6.546875 68.75 3.75 65.738281 3.75 61.25 C 3.75 58.320312 6.414062 51.226562 8.265625 46.652344 C 8.894531 45.089844 11.105469 45.089844 11.738281 46.652344 C 13.585938 51.226562 16.25 58.320312 16.25 61.25 Z M 16.25 61.25 "/>
<path style=" stroke:none;fill-rule:nonzero;fill:rgb(90.980392%,61.568627%,26.27451%);fill-opacity:1;" d="M 73.597656 32.066406 L 40 9.273438 L 6.402344 32.066406 L 3.597656 27.933594 L 40 3.226562 L 76.402344 27.933594 Z M 73.597656 32.066406 "/>
<path style=" stroke:none;fill-rule:nonzero;fill:rgb(5.098039%,6.27451%,18.823529%);fill-opacity:1;" d="M 71.25 31.988281 L 72.894531 33.101562 C 73.101562 33.246094 73.347656 33.320312 73.597656 33.320312 C 73.675781 33.320312 73.753906 33.3125 73.832031 33.296875 C 74.15625 33.234375 74.441406 33.046875 74.628906 32.769531 L 77.4375 28.632812 C 77.828125 28.0625 77.675781 27.28125 77.105469 26.898438 L 40.703125 2.195312 C 40.277344 1.90625 39.722656 1.90625 39.300781 2.195312 L 2.894531 26.898438 C 2.320312 27.285156 2.171875 28.0625 2.5625 28.632812 L 5.367188 32.773438 C 5.554688 33.046875 5.84375 33.238281 6.167969 33.296875 C 6.492188 33.363281 6.832031 33.292969 7.105469 33.105469 L 8.75 31.988281 L 8.75 44.496094 C 8.015625 44.816406 7.417969 45.40625 7.105469 46.183594 C 5.003906 51.378906 2.5 58.207031 2.5 61.25 C 2.5 65.738281 5.113281 69.222656 8.75 69.878906 L 8.75 75 L 2.5 75 L 2.5 77.5 L 77.5 77.5 L 77.5 75 L 71.25 75 Z M 6.734375 30.335938 L 5.332031 28.261719 L 40 4.738281 L 74.667969 28.261719 L 73.265625 30.332031 L 40.703125 8.238281 C 40.492188 8.09375 40.246094 8.023438 40 8.023438 C 39.757812 8.023438 39.507812 8.09375 39.296875 8.238281 Z M 5 61.25 C 5 59.21875 6.609375 54.070312 9.421875 47.121094 C 9.566406 46.765625 9.871094 46.730469 10 46.730469 C 10.125 46.730469 10.433594 46.765625 10.578125 47.121094 C 13.390625 54.070312 15 59.21875 15 61.25 C 15 64.871094 12.894531 67.5 10 67.5 C 7.105469 67.5 5 64.871094 5 61.25 Z M 11.25 69.878906 C 14.886719 69.222656 17.5 65.738281 17.5 61.25 C 17.5 58.207031 14.996094 51.378906 12.894531 46.183594 C 12.582031 45.40625 11.984375 44.816406 11.25 44.496094 L 11.25 30.289062 L 40 10.785156 L 68.75 30.289062 L 68.75 54.621094 L 68.539062 54.308594 C 68.078125 53.609375 66.921875 53.609375 66.460938 54.308594 L 63.960938 58.058594 C 63.824219 58.261719 63.75 58.503906 63.75 58.75 L 63.75 61.25 L 61.25 61.25 L 61.25 58.75 C 61.25 58.503906 61.175781 58.261719 61.039062 58.058594 L 58.539062 54.308594 C 58.078125 53.609375 56.921875 53.609375 56.460938 54.308594 L 53.960938 58.058594 C 53.824219 58.261719 53.75 58.503906 53.75 58.75 L 53.75 61.25 L 51.25 61.25 L 51.25 58.75 C 51.25 58.503906 51.175781 58.261719 51.039062 58.058594 L 48.539062 54.308594 C 48.078125 53.609375 46.921875 53.609375 46.460938 54.308594 L 43.960938 58.058594 C 43.824219 58.261719 43.75 58.503906 43.75 58.75 L 43.75 75 L 36.25 75 L 36.25 51.25 C 36.25 50.558594 35.691406 50 35 50 L 21.25 50 C 20.558594 50 20 50.558594 20 51.25 L 20 75 L 11.25 75 Z M 48.75 75 L 46.25 75 L 46.25 59.128906 L 47.5 57.253906 L 48.75 59.128906 Z M 51.25 63.75 L 53.75 63.75 L 53.75 66.25 L 51.25 66.25 Z M 51.25 68.75 L 53.75 68.75 L 53.75 75 L 51.25 75 Z M 58.75 75 L 56.25 75 L 56.25 59.128906 L 57.5 57.253906 L 58.75 59.128906 Z M 61.25 63.75 L 63.75 63.75 L 63.75 66.25 L 61.25 66.25 Z M 61.25 68.75 L 63.75 68.75 L 63.75 75 L 61.25 75 Z M 33.75 75 L 22.5 75 L 22.5 52.5 L 33.75 52.5 Z M 66.25 75 L 66.25 59.128906 L 67.5 57.253906 L 68.75 59.128906 L 68.75 75 Z M 66.25 75 "/>
<path style=" stroke:none;fill-rule:nonzero;fill:rgb(5.098039%,6.27451%,18.823529%);fill-opacity:1;" d="M 36.25 41.25 L 43.75 41.25 C 46.507812 41.25 48.75 39.007812 48.75 36.25 L 48.75 28.75 C 48.75 25.992188 46.507812 23.75 43.75 23.75 L 36.25 23.75 C 33.492188 23.75 31.25 25.992188 31.25 28.75 L 31.25 36.25 C 31.25 39.007812 33.492188 41.25 36.25 41.25 Z M 33.75 36.25 L 33.75 33.75 L 38.75 33.75 L 38.75 38.75 L 36.25 38.75 C 34.871094 38.75 33.75 37.628906 33.75 36.25 Z M 43.75 38.75 L 41.25 38.75 L 41.25 33.75 L 46.25 33.75 L 46.25 36.25 C 46.25 37.628906 45.128906 38.75 43.75 38.75 Z M 46.25 28.75 L 46.25 31.25 L 41.25 31.25 L 41.25 26.25 L 43.75 26.25 C 45.128906 26.25 46.25 27.371094 46.25 28.75 Z M 36.25 26.25 L 38.75 26.25 L 38.75 31.25 L 33.75 31.25 L 33.75 28.75 C 33.75 27.371094 34.871094 26.25 36.25 26.25 Z M 36.25 26.25 "/>
<path style=" stroke:none;fill-rule:nonzero;fill:rgb(5.098039%,6.27451%,18.823529%);fill-opacity:1;" d="M 28.75 62.5 L 31.25 62.5 L 31.25 65 L 28.75 65 Z M 28.75 62.5 "/>
</g>
</svg>
