<?xml version="1.0" encoding="UTF-8"?>
<svg xmlns="http://www.w3.org/2000/svg" xmlns:xlink="http://www.w3.org/1999/xlink" width="80pt" height="80pt" viewBox="0 0 80 80" version="1.1">
<g id="surface1">
<path style=" stroke:none;fill-rule:nonzero;fill:rgb(87.45098%,91.764706%,93.72549%);fill-opacity:1;" d="M 72.433594 55.234375 L 7.566406 55.234375 L 7.566406 11.519531 C 7.566406 10.914062 8.058594 10.421875 8.664062 10.421875 L 71.335938 10.421875 C 71.941406 10.421875 72.433594 10.914062 72.433594 11.519531 Z M 72.433594 55.234375 "/>
<path style=" stroke:none;fill-rule:nonzero;fill:rgb(74.901961%,81.176471%,83.921569%);fill-opacity:1;" d="M 71.335938 10.421875 L 63.179688 10.421875 C 63.785156 10.421875 64.277344 10.914062 64.277344 11.519531 L 64.277344 48.789062 C 64.277344 49.5 63.699219 50.078125 62.988281 50.078125 L 7.566406 50.078125 L 7.566406 55.234375 L 72.433594 55.234375 L 72.433594 11.519531 C 72.433594 10.914062 71.941406 10.421875 71.335938 10.421875 Z M 71.335938 10.421875 "/>
<path style=" stroke:none;fill-rule:nonzero;fill:rgb(20.784314%,89.803922%,89.803922%);fill-opacity:1;" d="M 12.410156 46.960938 L 12.410156 15.929688 C 12.410156 15.5625 12.707031 15.265625 13.074219 15.265625 L 66.925781 15.265625 C 67.292969 15.265625 67.589844 15.5625 67.589844 15.929688 L 67.589844 46.960938 C 67.589844 47.328125 67.292969 47.625 66.925781 47.625 L 13.074219 47.625 C 12.707031 47.625 12.410156 47.328125 12.410156 46.960938 Z M 12.410156 46.960938 "/>
<path style=" stroke:none;fill-rule:nonzero;fill:rgb(15.686275%,80.784314%,78.823529%);fill-opacity:1;" d="M 66.925781 15.265625 L 64.277344 15.265625 L 64.277344 43.839844 C 64.277344 44.207031 63.980469 44.503906 63.613281 44.503906 L 12.410156 44.503906 L 12.410156 46.960938 C 12.410156 47.328125 12.707031 47.625 13.074219 47.625 L 66.925781 47.625 C 67.292969 47.625 67.589844 47.328125 67.589844 46.960938 L 67.589844 15.929688 C 67.589844 15.5625 67.292969 15.265625 66.925781 15.265625 Z M 66.925781 15.265625 "/>
<path style=" stroke:none;fill-rule:nonzero;fill:rgb(43.529412%,59.607843%,63.921569%);fill-opacity:1;" d="M 77.304688 69.578125 L 2.695312 69.578125 C 1.851562 69.578125 1.171875 68.894531 1.171875 68.054688 L 1.171875 65.082031 L 78.828125 65.082031 L 78.828125 68.054688 C 78.828125 68.894531 78.144531 69.578125 77.304688 69.578125 Z M 77.304688 69.578125 "/>
<path style=" stroke:none;fill-rule:nonzero;fill:rgb(61.960784%,74.509804%,80%);fill-opacity:1;" d="M 78.828125 65.082031 L 1.171875 65.082031 L 7.566406 52.46875 L 72.433594 52.46875 Z M 78.828125 65.082031 "/>
<path style=" stroke:none;fill-rule:nonzero;fill:rgb(52.54902%,68.235294%,73.72549%);fill-opacity:1;" d="M 72.433594 52.46875 L 63.265625 52.46875 L 67.46875 60.757812 C 67.9375 61.683594 67.265625 62.78125 66.226562 62.78125 L 2.339844 62.78125 L 1.171875 65.082031 L 78.828125 65.082031 Z M 72.433594 52.46875 "/>
<path style=" stroke:none;fill-rule:nonzero;fill:rgb(87.45098%,91.764706%,93.72549%);fill-opacity:1;" d="M 50.28125 65.082031 L 48.75 59.535156 C 48.628906 59.085938 48.21875 58.777344 47.753906 58.777344 L 32.246094 58.777344 C 31.78125 58.777344 31.371094 59.085938 31.25 59.535156 L 29.71875 65.082031 Z M 50.28125 65.082031 "/>
<path style=" stroke:none;fill-rule:nonzero;fill:rgb(74.901961%,81.176471%,83.921569%);fill-opacity:1;" d="M 30.355469 62.78125 L 29.71875 65.082031 L 50.28125 65.082031 L 49.644531 62.78125 Z M 30.355469 62.78125 "/>
<path style=" stroke:none;fill-rule:nonzero;fill:rgb(0%,0%,0%);fill-opacity:1;" d="M 79.996094 65.011719 C 79.996094 65 79.996094 64.988281 79.996094 64.976562 C 79.992188 64.929688 79.984375 64.882812 79.972656 64.839844 C 79.972656 64.835938 79.972656 64.828125 79.96875 64.824219 C 79.960938 64.785156 79.949219 64.746094 79.9375 64.707031 C 79.933594 64.695312 79.929688 64.683594 79.925781 64.675781 C 79.910156 64.640625 79.898438 64.605469 79.878906 64.570312 C 79.878906 64.566406 79.875 64.558594 79.875 64.554688 L 73.605469 52.191406 L 73.605469 11.519531 C 73.605469 10.269531 72.589844 9.25 71.335938 9.25 L 8.664062 9.25 C 7.410156 9.25 6.394531 10.269531 6.394531 11.519531 L 6.394531 52.191406 L 0.125 64.550781 C 0.125 64.558594 0.121094 64.566406 0.117188 64.570312 C 0.101562 64.605469 0.0898438 64.636719 0.0742188 64.675781 C 0.0703125 64.683594 0.0664062 64.695312 0.0625 64.703125 C 0.0507812 64.746094 0.0390625 64.785156 0.0273438 64.824219 C 0.0273438 64.828125 0.0273438 64.832031 0.0273438 64.839844 C 0.015625 64.882812 0.0078125 64.929688 0.00390625 64.972656 C 0.00390625 64.984375 0.00390625 64.996094 0.00390625 65.007812 C 0.00390625 65.035156 0 65.058594 0 65.082031 L 0 68.054688 C 0 69.542969 1.207031 70.75 2.695312 70.75 L 77.304688 70.75 C 78.792969 70.75 80 69.542969 80 68.054688 L 80 65.082031 C 80 65.058594 79.996094 65.035156 79.996094 65.011719 Z M 8.738281 11.59375 L 71.261719 11.59375 L 71.261719 51.296875 L 8.738281 51.296875 Z M 8.285156 53.640625 L 71.714844 53.640625 L 76.921875 63.910156 L 51.171875 63.910156 L 49.878906 59.226562 C 49.617188 58.269531 48.742188 57.605469 47.753906 57.605469 L 32.246094 57.605469 C 31.257812 57.605469 30.382812 58.269531 30.117188 59.226562 L 28.828125 63.910156 L 3.078125 63.910156 Z M 48.742188 63.910156 L 31.257812 63.910156 L 32.351562 59.949219 L 47.648438 59.949219 Z M 77.65625 68.054688 C 77.65625 68.25 77.5 68.40625 77.304688 68.40625 L 2.695312 68.40625 C 2.5 68.40625 2.34375 68.25 2.34375 68.054688 L 2.34375 66.253906 L 77.65625 66.253906 Z M 77.65625 68.054688 "/>
<path style=" stroke:none;fill-rule:nonzero;fill:rgb(0%,0%,0%);fill-opacity:1;" d="M 67.589844 33.398438 C 66.941406 33.398438 66.417969 33.925781 66.417969 34.570312 L 66.417969 46.453125 L 13.582031 46.453125 L 13.582031 34.570312 C 13.582031 33.925781 13.058594 33.398438 12.410156 33.398438 C 11.761719 33.398438 11.238281 33.925781 11.238281 34.570312 L 11.238281 46.960938 C 11.238281 47.972656 12.0625 48.796875 13.074219 48.796875 L 66.925781 48.796875 C 67.9375 48.796875 68.761719 47.972656 68.761719 46.960938 L 68.761719 34.570312 C 68.761719 33.925781 68.238281 33.398438 67.589844 33.398438 Z M 67.589844 33.398438 "/>
<path style=" stroke:none;fill-rule:nonzero;fill:rgb(0%,0%,0%);fill-opacity:1;" d="M 66.925781 14.09375 L 13.074219 14.09375 C 12.0625 14.09375 11.238281 14.917969 11.238281 15.933594 L 11.238281 28.320312 C 11.238281 28.96875 11.761719 29.492188 12.410156 29.492188 C 13.058594 29.492188 13.582031 28.96875 13.582031 28.320312 L 13.582031 16.4375 L 66.417969 16.4375 L 66.417969 28.320312 C 66.417969 28.96875 66.941406 29.492188 67.589844 29.492188 C 68.238281 29.492188 68.761719 28.96875 68.761719 28.320312 L 68.761719 15.933594 C 68.761719 14.917969 67.9375 14.09375 66.925781 14.09375 Z M 66.925781 14.09375 "/>
</g>
</svg>
